<svg width="150" height="33" viewBox="0 0 150 33" fill="none" xmlns="http://www.w3.org/2000/svg">
<path d="M6.968 28.448H8.264C8.968 28.448 9.448 28.32 9.704 28.064C9.992 27.776 10.136 27.328 10.136 26.72V4.544H5.72C5.08 4.544 4.616 4.688 4.328 4.976C4.04 5.232 3.896 5.664 3.896 6.272V7.808H0.104V0.991999H25.208V7.808H21.416V6.272C21.416 5.632 21.272 5.184 20.984 4.928C20.728 4.672 20.264 4.544 19.592 4.544H15.224V26.72C15.224 27.328 15.352 27.776 15.608 28.064C15.896 28.32 16.392 28.448 17.096 28.448H18.392V32H6.968V28.448ZM30.7093 32.72C28.1493 32.72 26.1973 32.16 24.8533 31.04C23.5413 29.92 22.8853 28.336 22.8853 26.288C22.8853 23.984 23.6053 22.304 25.0453 21.248C26.5173 20.16 28.6293 19.52 31.3813 19.328L38.1013 18.896V15.968C38.1013 14.464 37.7813 13.376 37.1413 12.704C36.5013 12.032 35.4133 11.696 33.8773 11.696C32.8213 11.696 31.9413 11.792 31.2373 11.984C30.5653 12.144 29.9413 12.416 29.3653 12.8V14.528H24.9013V10.736C27.5893 9.072 30.6133 8.24 33.9733 8.24C40.1173 8.24 43.1893 10.96 43.1893 16.4V26.912C43.1893 27.552 43.3013 28.016 43.5253 28.304C43.7813 28.592 44.1813 28.736 44.7253 28.736H45.7812V32H40.2613L39.6373 28.976C38.6133 30.288 37.4133 31.248 36.0373 31.856C34.6933 32.432 32.9173 32.72 30.7093 32.72ZM31.8613 29.264C33.7813 29.264 35.3013 28.848 36.4213 28.016C37.5413 27.184 38.1013 25.92 38.1013 24.224V21.92L31.7653 22.4C30.1973 22.496 29.1093 22.832 28.5013 23.408C27.8933 23.952 27.5893 24.832 27.5893 26.048C27.5893 27.104 27.9253 27.904 28.5973 28.448C29.2693 28.992 30.3573 29.264 31.8613 29.264ZM56.9195 32.72C53.0475 32.72 49.8315 31.792 47.2715 29.936V26.192H51.9755V28.112C53.2875 28.88 54.8875 29.264 56.7755 29.264C58.2155 29.264 59.2875 29.04 59.9915 28.592C60.7275 28.144 61.0955 27.408 61.0955 26.384C61.0955 25.712 60.9035 25.168 60.5195 24.752C60.1675 24.304 59.6715 23.936 59.0315 23.648C58.3915 23.328 57.1275 22.784 55.2395 22.016C53.3515 21.248 51.8955 20.592 50.8715 20.048C49.8795 19.472 49.0635 18.752 48.4235 17.888C47.8155 17.024 47.5115 15.936 47.5115 14.624C47.5115 12.512 48.3275 10.928 49.9595 9.872C51.5915 8.784 53.8155 8.24 56.6315 8.24C58.4235 8.24 60.1035 8.48 61.6715 8.96C63.2395 9.408 64.5995 10.064 65.7515 10.928V14.528H61.1435V12.752C59.9915 12.048 58.6155 11.696 57.0155 11.696C55.5755 11.696 54.4875 11.92 53.7515 12.368C53.0475 12.816 52.6955 13.568 52.6955 14.624C52.6955 15.584 53.0795 16.336 53.8475 16.88C54.6155 17.392 55.7995 17.936 57.3995 18.512C57.8475 18.64 58.3435 18.816 58.8875 19.04C60.5515 19.68 61.8795 20.272 62.8715 20.816C63.8635 21.36 64.6795 22.08 65.3195 22.976C65.9595 23.872 66.2795 25.008 66.2795 26.384C66.2795 28.432 65.4955 30 63.9275 31.088C62.3915 32.176 60.0555 32.72 56.9195 32.72ZM80.0203 32.72C77.3643 32.72 75.3643 32.064 74.0203 30.752C72.6763 29.44 72.0043 27.52 72.0043 24.992V12.416H68.2603V8.96H72.0043V3.776L77.0923 2.144V8.96H84.0043V12.416H77.0923V25.328C77.0923 26.736 77.3483 27.744 77.8603 28.352C78.4043 28.96 79.2203 29.264 80.3083 29.264C81.7163 29.264 82.7883 28.96 83.5243 28.352V26.288H87.8923V29.936C86.8363 30.832 85.6843 31.52 84.4363 32C83.1883 32.48 81.7163 32.72 80.0203 32.72ZM101.648 32.72C97.9996 32.72 95.0716 31.712 92.8636 29.696C90.6876 27.648 89.5996 24.672 89.5996 20.768C89.5996 16.608 90.6076 13.488 92.6236 11.408C94.6716 9.296 97.5676 8.24 101.312 8.24C104.928 8.24 107.664 9.264 109.52 11.312C111.376 13.36 112.304 16.128 112.304 19.616V21.824H94.6876C94.6876 24.416 95.3116 26.336 96.5596 27.584C97.8396 28.8 99.5516 29.408 101.696 29.408C102.912 29.408 103.936 29.328 104.768 29.168C105.6 28.976 106.352 28.672 107.024 28.256V26.528H111.488V29.888C110.144 30.848 108.688 31.552 107.12 32C105.584 32.48 103.76 32.72 101.648 32.72ZM107.36 18.704C107.36 14.032 105.328 11.696 101.264 11.696C99.1196 11.696 97.4876 12.32 96.3676 13.568C95.2476 14.816 94.6876 16.528 94.6876 18.704H107.36ZM115.475 28.496H116.867C117.507 28.496 117.955 28.352 118.211 28.064C118.499 27.776 118.643 27.312 118.643 26.672V6.224C118.643 5.616 118.499 5.184 118.211 4.928C117.955 4.64 117.507 4.496 116.867 4.496H115.475V0.943999H126.851V4.496H125.459C124.851 4.496 124.403 4.64 124.115 4.928C123.859 5.184 123.731 5.616 123.731 6.224V26.72C123.731 27.36 123.859 27.824 124.115 28.112C124.403 28.368 124.851 28.496 125.459 28.496H126.851V32H115.475V28.496ZM141.286 32.72C138.63 32.72 136.63 32.064 135.286 30.752C133.942 29.44 133.27 27.52 133.27 24.992V12.416H129.526V8.96H133.27V3.776L138.358 2.144V8.96H145.27V12.416H138.358V25.328C138.358 26.736 138.614 27.744 139.126 28.352C139.67 28.96 140.486 29.264 141.574 29.264C142.982 29.264 144.054 28.96 144.79 28.352V26.288H149.158V29.936C148.102 30.832 146.95 31.52 145.702 32C144.454 32.48 142.982 32.72 141.286 32.72Z" fill="white"/>
</svg>
